
CASCADE Topology V1, (c) Matra-Datavision
Locations 1
1
             -1 -1.77238897058553e-16 2.39235636705974e-16 -780.499999999733 
-1.77238897056905e-16               1 6.88693098932422e-12 -159.749999997107 
-2.39235636707194e-16 6.88693098932422e-12              -1 40.0999999988071 
Curve2ds 8
1 3.1415926535897931 0 -1 0 
1 3.1415926535897931 0 0 1 
1 3.1415926535897931 0 0 1 
1 3.1415926535897931 7.5 -1 0 
1 0 0 0 1 
1 6.2831853071795862 0 0 1 
1 9.4247779607693793 0 -1 0 
1 9.4247779607693793 7.5 -1 0 
Curves 18
2 0 7.5 0 0 1 0 0 -0 1 1 0 -0 40
1 4.898587196589413e-15 7.5 40 -0 -1 -0 
2 0 0 0 0 1 0 0 -0 1 1 0 -0 40
1 0 7.5 -40 -0 -1 -0 
2 0 7.5 0 0 1 0 0 -0 1 1 0 -0 40
2 0 0 0 0 1 0 0 -0 1 1 0 -0 40
1 -0.999999999999999 7.5 -30 1.3733227518149724e-16 0 1 
1 -0.999999999999999 7.5 -30 -1 -0 -0 
1 1.0000000000000009 7.5 -30 -9.3964188282077059e-17 -0 -1 
1 -0.99999999999999489 7.5 1.8296334471678741e-30 1 0 1.3277647201629788e-32 
1 0 0 -30 -1 0 0 
1 -0.99999999999999489 0 1.3733227518149652e-16 1.3733227518149724e-16 -0 1 
1 -2.4469523335007729e-62 0 1.8429110943695039e-30 1 -0 1.3277647201629788e-32 
1 1.0000000000000036 0 -9.3964188282077392e-17 -9.3964188282077059e-17 0 -1 
1 -0.999999999999999 -2.5000000000000004 -30 -0 1 -0 
1 -0.99999999999999489 -2.5000000000000004 1.8296334471678741e-30 -0 1 -0 
1 1.0000000000000009 -2.5000000000000004 -30 -0 1 -0 
1 1.0000000000000036 -2.5000000000000004 1.8561887415711331e-30 -0 1 -0 
Polygon3D 0
PolygonOnTriangulations 36
19 1 3 4 5 6 7 8 9 10 11 12 13 14 15 16 17 18 19 2 
p 0.320000000800207 1 0 0.174532925199433 0.349065850398866 0.523598775598299 0.698131700797732 0.872664625997165 1.0471975511966 1.22173047639603 1.39626340159546 1.5707963267949 1.74532925199433 1.91986217719376 2.0943951023932 2.26892802759263 2.44346095279206 2.61799387799149 2.79252680319093 2.96705972839036 3.14159265358979 
19 6 24 25 26 27 28 29 30 31 32 33 34 35 36 37 38 39 40 5 
p 0.320000000800207 1 0 0.174532925199433 0.349065850398866 0.523598775598299 0.698131700797732 0.872664625997165 1.0471975511966 1.22173047639603 1.39626340159546 1.5707963267949 1.74532925199433 1.91986217719376 2.0943951023932 2.26892802759263 2.44346095279206 2.61799387799149 2.79252680319093 2.96705972839036 3.14159265358979 
2 1 20 
p 0.320000000800207 1 -0 7.5 
2 1 2 
p 0.320000000800207 1 -0 7.5 
19 20 22 23 24 25 26 27 28 29 30 31 32 33 34 35 36 37 38 21 
p 0.320000000800207 1 0 0.174532925199433 0.349065850398866 0.523598775598299 0.698131700797732 0.872664625997165 1.0471975511966 1.22173047639603 1.39626340159546 1.5707963267949 1.74532925199433 1.91986217719376 2.0943951023932 2.26892802759263 2.44346095279206 2.61799387799149 2.79252680319093 2.96705972839036 3.14159265358979 
19 6 24 25 26 27 28 29 30 31 32 33 34 35 36 37 38 39 40 5 
p 0.320000000800207 1 0 0.174532925199433 0.349065850398866 0.523598775598299 0.698131700797732 0.872664625997165 1.0471975511966 1.22173047639603 1.39626340159546 1.5707963267949 1.74532925199433 1.91986217719376 2.0943951023932 2.26892802759263 2.44346095279206 2.61799387799149 2.79252680319093 2.96705972839036 3.14159265358979 
2 2 21 
p 0.320000000800207 1 -0 7.5 
2 3 21 
p 0.320000000800207 1 -0 7.5 
19 3 4 5 6 7 8 9 10 11 12 13 14 15 16 17 18 19 20 1 
p 0.320000000800207 1 3.14159265358979 3.31612557878923 3.49065850398866 3.66519142918809 3.83972435438752 4.01425727958696 4.18879020478639 4.36332312998582 4.53785605518526 4.71238898038469 4.88692190558412 5.06145483078355 5.23598775598299 5.41052068118242 5.58505360638185 5.75958653158128 5.93411945678072 6.10865238198015 6.28318530717959 
19 5 7 8 9 10 11 12 13 14 15 16 17 18 19 20 21 22 23 6 
p 0.320000000800207 1 3.14159265358979 3.31612557878923 3.49065850398866 3.66519142918809 3.83972435438752 4.01425727958696 4.18879020478639 4.36332312998582 4.53785605518526 4.71238898038469 4.88692190558412 5.06145483078355 5.23598775598299 5.41052068118242 5.58505360638185 5.75958653158128 5.93411945678072 6.10865238198015 6.28318530717959 
19 21 22 23 24 25 26 27 28 29 30 31 32 33 34 35 36 37 38 2 
p 0.320000000800207 1 3.14159265358979 3.31612557878923 3.49065850398866 3.66519142918809 3.83972435438752 4.01425727958696 4.18879020478639 4.36332312998582 4.53785605518526 4.71238898038469 4.88692190558412 5.06145483078355 5.23598775598299 5.41052068118242 5.58505360638185 5.75958653158128 5.93411945678072 6.10865238198015 6.28318530717959 
19 5 7 8 9 10 11 12 13 14 15 16 17 18 19 20 21 22 23 6 
p 0.320000000800207 1 3.14159265358979 3.31612557878923 3.49065850398866 3.66519142918809 3.83972435438752 4.01425727958696 4.18879020478639 4.36332312998582 4.53785605518526 4.71238898038469 4.88692190558412 5.06145483078355 5.23598775598299 5.41052068118242 5.58505360638185 5.75958653158128 5.93411945678072 6.10865238198015 6.28318530717959 
2 1 2 
p 0.320000000800207 1 0 30 
2 2 3 
p 0.320000000800207 1 0 30 
2 3 1 
p 0.320000000800207 1 -2 -0 
2 2 3 
p 0.320000000800207 1 -2 -0 
2 4 3 
p 0.320000000800207 1 -30 -0 
2 2 3 
p 0.320000000800207 1 -30 -0 
2 2 4 
p 0.320000000800207 1 0 2 
2 2 3 
p 0.320000000800207 1 0 2 
2 1 2 
p 0.320000000800207 1 -1 0.999999999999999 
2 1 4 
p 0.320000000800207 1 -1 0.999999999999999 
2 2 3 
p 0.320000000800207 1 -30 -1.37332275181495e-16 
2 1 4 
p 0.320000000800207 1 -30 -1.37332275181495e-16 
2 3 4 
p 0.320000000800207 1 -0.999999999999995 1 
2 1 4 
p 0.320000000800207 1 -0.999999999999995 1 
2 4 1 
p 0.320000000800207 1 -9.39641882820793e-17 30 
2 1 4 
p 0.320000000800207 1 -9.39641882820793e-17 30 
2 1 2 
p 0.320000000800207 1 2.5 10 
2 4 3 
p 0.320000000800207 1 2.5 10 
2 4 3 
p 0.320000000800207 1 2.5 10 
2 1 2 
p 0.320000000800207 1 2.5 10 
2 1 2 
p 0.320000000800207 1 2.5 10 
2 4 3 
p 0.320000000800207 1 2.5 10 
2 1 2 
p 0.320000000800207 1 2.5 10 
2 4 3 
p 0.320000000800207 1 2.5 10 
Surfaces 8
2 0 7.5 0 -0 -1 -0 0 0 -1 1 -0 0 40
1 0 7.5 0 0 1 0 0 -0 1 1 0 -0 
2 0 7.5 0 -0 -1 -0 0 0 -1 1 -0 0 40
1 0 0 0 0 1 0 0 -0 1 1 0 -0 
1 -0.999999999999999 -2.5000000000000004 -30 -1 0 1.3733227518149724e-16 1.3733227518149724e-16 0 1 0 1 -0 
1 -0.999999999999999 -2.5000000000000004 -30 0 0 -1 -1 0 -0 0 1 0 
1 1.0000000000000009 -2.5000000000000004 -30 1 0 -9.3964188282077059e-17 -9.3964188282077059e-17 0 -1 0 1 0 
1 -0.99999999999999489 -2.5000000000000004 1.8296334471678741e-30 -1.3277647201629788e-32 0 1 1 0 1.3277647201629788e-32 0 1 -0 
Triangulations 8
38 36 1 0.152212076330202
0 7.5 40 0 7.49999999999997 -40 6.94592710667723 7.49999999999997 39.3923101204883 13.6808057330268 7.5 37.5877048314363 20 7.5 34.6410161513775 25.7115043874616 7.5 30.6417777247591 30.6417777247591 7.5 25.7115043874616 34.6410161513776 7.49999999999997 20 37.5877048314363 7.5 13.6808057330268 39.3923101204883 7.5 6.94592710667722 40 7.5 0 39.3923101204883 7.5 -6.94592710667721 37.5877048314363 7.5 -13.6808057330268 34.6410161513776 7.5 -20 30.6417777247591 7.5 -25.7115043874616 25.7115043874616 7.5 -30.6417777247591 20 7.5 -34.6410161513775 13.6808057330268 7.5 -37.5877048314363 6.94592710667723 7.5 -39.3923101204883 0 -2.8421709430404e-14 40 0 0 -40 6.94592710667723 -2.8421709430404e-14 39.3923101204883 13.6808057330268 0 37.5877048314363 20 0 34.6410161513776 25.7115043874616 0 30.6417777247591 30.6417777247591 0 25.7115043874616 34.6410161513776 -2.8421709430404e-14 20 37.5877048314363 0 13.6808057330268 39.3923101204883 0 6.94592710667722 40 0 7.105427357601e-15 39.3923101204883 0 -6.94592710667721 37.5877048314363 0 -13.6808057330267 34.6410161513776 0 -20 30.6417777247591 0 -25.7115043874616 25.7115043874616 0 -30.6417777247591 20 0 -34.6410161513775 13.6808057330268 0 -37.5877048314363 6.94592710667723 0 -39.3923101204883 3.14159265358979 0 0 0 2.96705972839036 0 2.79252680319093 0 2.61799387799149 0 2.44346095279206 0 2.26892802759263 0 2.0943951023932 0 1.91986217719376 0 1.74532925199433 0 1.5707963267949 0 1.39626340159546 0 1.22173047639603 0 1.0471975511966 0 0.872664625997165 0 0.698131700797732 0 0.5235987755983 0 0.349065850398867 0 0.174532925199434 0 3.14159265358979 7.5 0 7.5 2.96705972839036 7.5 2.79252680319093 7.5 2.61799387799149 7.5 2.44346095279206 7.5 2.26892802759263 7.5 2.0943951023932 7.5 1.91986217719376 7.5 1.74532925199433 7.5 1.5707963267949 7.5 1.39626340159546 7.5 1.22173047639603 7.5 1.0471975511966 7.5 0.872664625997165 7.5 0.698131700797732 7.5 0.5235987755983 7.5 0.349065850398867 7.5 0.174532925199434 7.5 38 2 19 38 21 2 37 19 18 37 38 19 36 18 17 36 37 18 35 17 16 35 36 17 34 16 15 34 35 16 33 15 14 33 34 15 32 14 13 32 33 14 31 13 12 31 32 13 30 12 11 30 31 12 29 11 10 29 30 11 28 10 9 28 29 10 27 9 8 27 28 9 26 8 7 26 27 8 25 7 6 25 26 7 24 25 6 24 6 5 23 24 5 23 5 4 22 4 3 22 23 4 20 3 1 20 22 3 
40 40 1 5.81621249338073e-14
-1 7.5 -30 -1 7.5 7.105427357601e-15 1 7.5 -30 1 7.5 0 0 7.49999999999997 -40 0 7.5 40 -6.94592710667723 7.5 -39.3923101204883 -13.6808057330268 7.5 -37.5877048314363 -20 7.5 -34.6410161513776 -25.7115043874616 7.5 -30.6417777247591 -30.6417777247591 7.5 -25.7115043874616 -34.6410161513775 7.5 -20 -37.5877048314363 7.5 -13.6808057330268 -39.3923101204883 7.5 -6.94592710667728 -40 7.5 -7.8159700933611e-14 -39.3923101204883 7.5 6.94592710667713 -37.5877048314363 7.5 13.6808057330267 -34.6410161513776 7.49999999999997 19.9999999999999 -30.6417777247592 7.5 25.7115043874615 -25.7115043874617 7.5 30.641777724759 -20.0000000000001 7.5 34.6410161513775 -13.6808057330269 7.5 37.5877048314363 -6.94592710667735 7.49999999999997 39.3923101204883 6.94592710667723 7.49999999999997 39.3923101204883 13.6808057330268 7.5 37.5877048314363 20 7.5 34.6410161513775 25.7115043874616 7.5 30.6417777247591 30.6417777247591 7.5 25.7115043874616 34.6410161513776 7.49999999999997 20 37.5877048314363 7.5 13.6808057330268 39.3923101204883 7.5 6.94592710667722 40 7.5 0 39.3923101204883 7.5 -6.94592710667721 37.5877048314363 7.5 -13.6808057330268 34.6410161513776 7.5 -20 30.6417777247591 7.5 -25.7115043874616 25.7115043874616 7.5 -30.6417777247591 20 7.5 -34.6410161513775 13.6808057330268 7.5 -37.5877048314363 6.94592710667723 7.5 -39.3923101204883 -30 -1 0 -0.999999999999993 -30 1 0 1 -40 0 40 7.105427357601e-15 -39.3923101204883 -6.9459271066772 -37.5877048314363 -13.6808057330267 -34.6410161513776 -20 -30.6417777247591 -25.7115043874615 -25.7115043874616 -30.6417777247591 -20 -34.6410161513775 -13.6808057330268 -37.5877048314363 -6.94592710667728 -39.3923101204883 -7.8159700933611e-14 -40 6.94592710667713 -39.3923101204883 13.6808057330267 -37.5877048314364 19.9999999999999 -34.6410161513776 25.7115043874615 -30.6417777247592 30.641777724759 -25.7115043874617 34.6410161513775 -20.0000000000001 37.5877048314363 -13.6808057330269 39.3923101204883 -6.94592710667735 39.3923101204883 6.94592710667721 37.5877048314363 13.6808057330267 34.6410161513776 20 30.6417777247591 25.7115043874616 25.7115043874616 30.6417777247591 20 34.6410161513775 13.6808057330268 37.5877048314363 6.94592710667722 39.3923101204883 0 40 -6.94592710667721 39.3923101204883 -13.6808057330267 37.5877048314363 -20 34.6410161513776 -25.7115043874616 30.6417777247591 -30.6417777247591 25.7115043874616 -34.6410161513775 20 -37.5877048314363 13.6808057330268 -39.3923101204883 6.94592710667726 29 30 4 26 4 25 27 4 26 28 29 4 28 4 27 1 5 7 1 7 8 1 8 9 1 9 10 3 40 5 3 5 1 39 40 3 38 39 3 37 38 3 2 10 11 2 11 12 2 12 13 2 13 14 2 14 15 2 15 16 2 16 17 2 17 18 2 18 19 2 1 10 4 37 3 20 2 19 36 37 4 21 2 20 35 36 4 22 2 21 34 35 4 23 2 22 33 34 4 32 33 4 6 4 2 6 2 23 24 4 6 31 32 4 30 31 4 25 4 24 
38 36 1 0.152212076330212
0 7.5 40 0 -2.8421709430404e-14 40 0 7.49999999999997 -40 -6.94592710667723 7.5 -39.3923101204883 -13.6808057330268 7.5 -37.5877048314363 -20 7.5 -34.6410161513776 -25.7115043874616 7.5 -30.6417777247591 -30.6417777247591 7.5 -25.7115043874616 -34.6410161513775 7.5 -20 -37.5877048314363 7.5 -13.6808057330268 -39.3923101204883 7.5 -6.94592710667728 -40 7.5 -7.8159700933611e-14 -39.3923101204883 7.5 6.94592710667713 -37.5877048314363 7.5 13.6808057330267 -34.6410161513776 7.49999999999997 19.9999999999999 -30.6417777247592 7.5 25.7115043874615 -25.7115043874617 7.5 30.641777724759 -20.0000000000001 7.5 34.6410161513775 -13.6808057330269 7.5 37.5877048314363 -6.94592710667735 7.49999999999997 39.3923101204883 0 0 -40 -6.94592710667723 0 -39.3923101204883 -13.6808057330268 0 -37.5877048314363 -20 0 -34.6410161513776 -25.7115043874616 0 -30.6417777247592 -30.6417777247591 0 -25.7115043874616 -34.6410161513775 0 -20 -37.5877048314363 0 -13.6808057330268 -39.3923101204883 0 -6.94592710667729 -40 0 -7.8159700933611e-14 -39.3923101204883 0 6.94592710667713 -37.5877048314363 0 13.6808057330267 -34.6410161513776 -2.8421709430404e-14 19.9999999999999 -30.6417777247592 0 25.7115043874615 -25.7115043874617 0 30.641777724759 -20.0000000000001 0 34.6410161513775 -13.6808057330269 0 37.5877048314363 -6.94592710667735 -2.8421709430404e-14 39.3923101204883 3.14159265358979 0 3.14159265358979 7.5 6.28318530717959 0 6.10865238198015 0 5.93411945678072 0 5.75958653158129 0 5.58505360638186 0 5.41052068118242 0 5.23598775598299 0 5.06145483078356 0 4.88692190558412 0 4.71238898038469 0 4.53785605518526 0 4.36332312998583 0 4.18879020478639 0 4.01425727958696 0 3.83972435438753 0 3.66519142918809 0 3.49065850398866 0 3.31612557878923 0 6.28318530717959 7.5 6.10865238198015 7.5 5.93411945678072 7.5 5.75958653158129 7.5 5.58505360638186 7.5 5.41052068118242 7.5 5.23598775598299 7.5 5.06145483078356 7.5 4.88692190558412 7.5 4.71238898038469 7.5 4.53785605518526 7.5 4.36332312998583 7.5 4.18879020478639 7.5 4.01425727958696 7.5 3.83972435438753 7.5 3.66519142918809 7.5 3.49065850398866 7.5 3.31612557878923 7.5 38 2 1 38 1 20 37 20 19 37 38 20 36 19 18 36 37 19 35 18 17 35 36 18 34 17 16 34 35 17 33 16 15 33 34 16 32 15 14 32 33 15 31 14 13 31 32 14 30 13 12 30 31 13 29 12 11 29 30 12 28 11 10 28 29 11 27 10 9 27 28 10 26 9 8 26 27 9 25 8 7 25 26 8 24 25 7 24 7 6 23 24 6 23 6 5 22 5 4 22 23 5 21 4 3 21 22 4 
40 40 1 5.81621249338073e-14
1 0 -30 -1 0 -30 -1 0 0 1 0 0 0 0 -40 0 -2.8421709430404e-14 40 -6.94592710667723 0 -39.3923101204883 -13.6808057330268 0 -37.5877048314363 -20 0 -34.6410161513776 -25.7115043874616 0 -30.6417777247592 -30.6417777247591 0 -25.7115043874616 -34.6410161513775 0 -20 -37.5877048314363 0 -13.6808057330268 -39.3923101204883 0 -6.94592710667729 -40 0 -7.8159700933611e-14 -39.3923101204883 0 6.94592710667713 -37.5877048314363 0 13.6808057330267 -34.6410161513776 -2.8421709430404e-14 19.9999999999999 -30.6417777247592 0 25.7115043874615 -25.7115043874617 0 30.641777724759 -20.0000000000001 0 34.6410161513775 -13.6808057330269 0 37.5877048314363 -6.94592710667735 -2.8421709430404e-14 39.3923101204883 6.94592710667723 -2.8421709430404e-14 39.3923101204883 13.6808057330268 0 37.5877048314363 20 0 34.6410161513776 25.7115043874616 0 30.6417777247591 30.6417777247591 0 25.7115043874616 34.6410161513776 -2.8421709430404e-14 20 37.5877048314363 0 13.6808057330268 39.3923101204883 0 6.94592710667722 40 0 7.105427357601e-15 39.3923101204883 0 -6.94592710667721 37.5877048314363 0 -13.6808057330267 34.6410161513776 0 -20 30.6417777247591 0 -25.7115043874616 25.7115043874616 0 -30.6417777247591 20 0 -34.6410161513775 13.6808057330268 0 -37.5877048314363 6.94592710667723 0 -39.3923101204883 -30 1 -30 -1 0 -0.999999999999993 0 1 -40 0 40 7.105427357601e-15 -39.3923101204883 -6.9459271066772 -37.5877048314363 -13.6808057330267 -34.6410161513776 -20 -30.6417777247591 -25.7115043874615 -25.7115043874616 -30.6417777247591 -20 -34.6410161513775 -13.6808057330268 -37.5877048314363 -6.94592710667728 -39.3923101204883 -7.8159700933611e-14 -40 6.94592710667713 -39.3923101204883 13.6808057330267 -37.5877048314364 19.9999999999999 -34.6410161513776 25.7115043874615 -30.6417777247592 30.641777724759 -25.7115043874617 34.6410161513775 -20.0000000000001 37.5877048314363 -13.6808057330269 39.3923101204883 -6.94592710667735 39.3923101204883 6.94592710667721 37.5877048314363 13.6808057330267 34.6410161513776 20 30.6417777247591 25.7115043874616 25.7115043874616 30.6417777247591 20 34.6410161513775 13.6808057330268 37.5877048314363 6.94592710667722 39.3923101204883 0 40 -6.94592710667721 39.3923101204883 -13.6808057330267 37.5877048314363 -20 34.6410161513776 -25.7115043874616 30.6417777247591 -30.6417777247591 25.7115043874616 -34.6410161513775 20 -37.5877048314363 13.6808057330268 -39.3923101204883 6.94592710667726 29 30 4 26 4 25 27 4 26 28 29 4 28 4 27 2 5 7 2 7 8 2 8 9 2 9 10 1 40 5 1 5 2 39 40 1 38 39 1 37 38 1 3 10 11 3 11 12 3 12 13 3 13 14 3 14 15 3 15 16 3 16 17 3 17 18 3 18 19 3 2 10 4 37 1 20 3 19 36 37 4 21 3 20 35 36 4 22 3 21 34 35 4 23 3 22 33 34 4 32 33 4 6 4 3 6 3 23 24 4 6 31 32 4 30 31 4 25 4 24 
4 2 1 1.19904086659517e-14
-1 0 -30 -1 7.5 -30 -1 7.5 7.105427357601e-15 -1 0 0 0 2.5 0 10 30 10 30 2.5 3 2 1 3 1 4 
4 2 1 9.47390314346908e-15
1 0 -30 1 7.5 -30 -1 7.5 -30 -1 0 -30 -2 2.5 -2 10 0 10 0 2.5 3 2 1 3 1 4 
4 2 1 1.46549439250521e-14
1 0 0 1 7.5 0 1 7.5 -30 1 0 -30 -30 2.5 -30 10 0 10 0 2.5 3 2 1 3 1 4 
4 2 1 3.5544479789665e-15
-1 0 0 -1 7.5 7.105427357601e-15 1 7.5 0 1 0 0 0 2.5 0 10 2 10 2 2.5 3 2 1 3 1 4 

TShapes 51
Ve
1e-07
4.89858719658941e-15 7.5 40
0 0

0101101
*
Ve
1e-07
0 7.5 -40
0 0

0101101
*
Ed
 1e-07 1 1 0
1  1 0 0 3.14159265358979
2  1 1 0 0 3.14159265358979
4 C0 1 0 2 0
6  1 1 0
6  2 2 0
0

0101000
+51 0 -50 0 *
Ve
1e-07
4.89858719658941e-15 0 40
0 0

0101101
*
Ed
 1e-07 1 1 0
1  2 0 -0 7.5
2  2 1 0 -0 7.5
2  3 3 0 -0 7.5
4 CN 1 0 3 0
6  3 1 0
6  4 3 0
0

0101000
+51 0 -48 0 *
Ve
1e-07
0 0 -40
0 0

0101101
*
Ed
 1e-07 1 1 0
1  3 0 0 3.14159265358979
2  4 1 0 0 3.14159265358979
4 C0 1 0 4 0
6  5 1 0
6  6 4 0
0

0101000
+48 0 -46 0 *
Ed
 1e-07 1 1 0
1  4 0 -0 7.5
2  5 1 0 -0 7.5
2  6 3 0 -0 7.5
4 CN 1 0 3 0
6  7 1 0
6  8 3 0
0

0101000
+50 0 -46 0 *
Wi

0101100
-49 0 +47 0 +45 0 -44 0 *
Fa
0  1e-07 1 0
2  1
0101000
+43 0 *
Ed
 1e-07 1 1 0
1  5 0 3.14159265358979 6.28318530717959
2  7 3 0 3.14159265358979 6.28318530717959
4 C0 3 0 2 0
6  9 3 0
6  10 2 0
0

0101000
+50 0 -51 0 *
Ed
 1e-07 1 1 0
1  6 0 3.14159265358979 6.28318530717959
2  8 3 0 3.14159265358979 6.28318530717959
4 C0 3 0 4 0
6  11 3 0
6  12 4 0
0

0101000
+46 0 -48 0 *
Wi

0101100
-47 0 -41 0 +44 0 +40 0 *
Fa
0  1e-07 3 0
2  3
0101000
+39 0 *
Ve
1e-07
-0.999999999999999 7.5 -30
0 0

0101101
*
Ve
1e-07
-0.999999999999995 7.5 1.82963344716787e-30
0 0

0101101
*
Ed
 1e-07 1 1 0
1  7 0 0 30
4 C0 2 0 5 0
6  13 2 0
6  14 5 0
0

0101000
+37 0 -36 0 *
Ve
1e-07
1 7.5 -30
0 0

0101101
*
Ed
 1e-07 1 1 0
1  8 0 -2 -0
4 C0 2 0 6 0
6  15 2 0
6  16 6 0
0

0101000
+34 0 -37 0 *
Ve
1e-07
1 7.5 1.85618874157113e-30
0 0

0101101
*
Ed
 1e-07 1 1 0
1  9 0 -30 -0
4 C0 2 0 7 0
6  17 2 0
6  18 7 0
0

0101000
+32 0 -34 0 *
Ed
 1e-07 1 1 0
1  10 0 0 2
4 C0 2 0 8 0
6  19 2 0
6  20 8 0
0

0101000
+36 0 -32 0 *
Wi

0101100
-35 0 -33 0 -31 0 -30 0 *
Wi

0101100
+41 0 +49 0 *
Fa
0  1e-07 2 0
2  2
0101000
+29 0 +28 0 *
Ve
1e-07
1 0 -30
0 0

0101101
*
Ve
1e-07
-0.999999999999999 0 -30
0 0

0101101
*
Ed
 1e-07 1 1 0
1  11 0 -1 0.999999999999999
4 C0 4 0 6 0
6  21 4 0
6  22 6 0
0

0101000
+26 0 -25 0 *
Ve
1e-07
-0.999999999999995 0 1.82963344716787e-30
0 0

0101101
*
Ed
 1e-07 1 1 0
1  12 0 -30 -1.37332275181495e-16
4 C0 4 0 5 0
6  23 4 0
6  24 5 0
0

0101000
+25 0 -23 0 *
Ve
1e-07
1 0 1.85618874157113e-30
0 0

0101101
*
Ed
 1e-07 1 1 0
1  13 0 -0.999999999999995 1
4 C0 4 0 8 0
6  25 4 0
6  26 8 0
0

0101000
+23 0 -21 0 *
Ed
 1e-07 1 1 0
1  14 0 -9.39641882820793e-17 30
4 C0 4 0 7 0
6  27 4 0
6  28 7 0
0

0101000
+21 0 -26 0 *
Wi

0101100
+24 0 +22 0 +20 0 +19 0 *
Wi

0101100
-40 0 -45 0 *
Fa
0  1e-07 4 0
2  4
0101000
-18 0 -17 0 *
Ed
 1e-07 1 1 0
1  15 0 2.5 10
4 C0 5 0 6 0
6  29 5 0
6  30 6 0
0

0101000
+25 0 -37 0 *
Ed
 1e-07 1 1 0
1  16 0 2.5 10
4 C0 5 0 8 0
6  31 5 0
6  32 8 0
0

0101000
+23 0 -36 0 *
Wi

0101100
+15 0 +35 0 -14 0 -22 0 *
Fa
0  1e-07 5 0
2  5
0101000
-13 0 *
Ed
 1e-07 1 1 0
1  17 0 2.5 10
4 C0 6 0 7 0
6  33 6 0
6  34 7 0
0

0101000
+26 0 -34 0 *
Wi

0101100
+11 0 +33 0 -15 0 -24 0 *
Fa
0  1e-07 6 0
2  6
0101000
-10 0 *
Ed
 1e-07 1 1 0
1  18 0 2.5 10
4 C0 7 0 8 0
6  35 7 0
6  36 8 0
0

0101000
+21 0 -32 0 *
Wi

0101100
+8 0 +31 0 -11 0 -19 0 *
Fa
0  1e-07 7 0
2  7
0101000
-7 0 *
Wi

0101100
+14 0 +30 0 -8 0 -20 0 *
Fa
0  1e-07 8 0
2  8
0101000
-5 0 *
Sh

0101100
+42 0 +38 0 +27 0 -16 0 -12 0 -9 0 -6 0 -4 0 *
So

0100000
+3 0 *
Co

1100000
+2 1 *

+1 0 