ISO-10303-21;
HEADER;
FILE_DESCRIPTION (( 'STEP AP214' ),
    '1' );
FILE_NAME ('A6_Link.STEP',
    '2021-06-22T07:25:40',
    ( 'User' ),
    ( '' ),
    'SwSTEP 2.0',
    'SolidWorks 2016',
    '' );
FILE_SCHEMA (( 'AUTOMOTIVE_DESIGN' ));
ENDSEC;

DATA;
#1 = DIRECTION ( 'NONE',  ( -0.0000000000000000000, 1.000000000000000000, -0.0000000000000000000 ) ) ;
#2 = CARTESIAN_POINT ( 'NONE',  ( 1.000000000000003600, 0.0000000000000000000, -9.396418828207739200E-017 ) ) ;
#3 = CARTESIAN_POINT ( 'NONE',  ( -0.9999999999999988900, -2.500000000000000400, -30.00000000000000000 ) ) ;
#4 = DIRECTION ( 'NONE',  ( 0.0000000000000000000, 1.000000000000000000, 0.0000000000000000000 ) ) ;
#5 = CARTESIAN_POINT ( 'NONE',  ( 0.0000000000000000000, 0.0000000000000000000, 0.0000000000000000000 ) ) ;
#6 = CARTESIAN_POINT ( 'NONE',  ( 4.898587196589413000E-015, 7.500000000000000000, 40.00000000000000000 ) ) ;
#7 = DIRECTION ( 'NONE',  ( 0.0000000000000000000, 0.0000000000000000000, 1.000000000000000000 ) ) ;
#8 = CARTESIAN_POINT ( 'NONE',  ( 1.000000000000003600, -2.500000000000000400, 1.856188741571133500E-030 ) ) ;
#9 = DIRECTION ( 'NONE',  ( -0.0000000000000000000, -1.000000000000000000, -0.0000000000000000000 ) ) ;
#10 = DIRECTION ( 'NONE',  ( -0.0000000000000000000, 1.000000000000000000, -0.0000000000000000000 ) ) ;
#11 = CARTESIAN_POINT ( 'NONE',  ( 0.0000000000000000000, 7.500000000000000000, 0.0000000000000000000 ) ) ;
#12 = DIRECTION ( 'NONE',  ( 0.0000000000000000000, 1.000000000000000000, 0.0000000000000000000 ) ) ;
#13 = DIRECTION ( 'NONE',  ( 0.0000000000000000000, 0.0000000000000000000, 1.000000000000000000 ) ) ;
#14 = CARTESIAN_POINT ( 'NONE',  ( -0.9999999999999988900, 7.500000000000000000, -30.00000000000000000 ) ) ;
#15 = CARTESIAN_POINT ( 'NONE',  ( 0.0000000000000000000, 7.500000000000000000, 0.0000000000000000000 ) ) ;
#16 = DIRECTION ( 'NONE',  ( 0.0000000000000000000, 0.0000000000000000000, -1.000000000000000000 ) ) ;
#17 = CARTESIAN_POINT ( 'NONE',  ( 0.0000000000000000000, 7.500000000000000000, 0.0000000000000000000 ) ) ;
#18 = DIRECTION ( 'NONE',  ( 0.0000000000000000000, 1.000000000000000000, 0.0000000000000000000 ) ) ;
#19 = DIRECTION ( 'NONE',  ( 0.0000000000000000000, 0.0000000000000000000, 1.000000000000000000 ) ) ;
#20 =( LENGTH_UNIT ( ) NAMED_UNIT ( * ) SI_UNIT ( .MILLI., .METRE. ) );
#21 = PLANE ( 'NONE',  #89 ) ;
#22 = DIRECTION ( 'NONE',  ( 0.0000000000000000000, 1.000000000000000000, 0.0000000000000000000 ) ) ;
#23 = DIRECTION ( 'NONE',  ( 0.0000000000000000000, -0.0000000000000000000, 1.000000000000000000 ) ) ;
#24 = CARTESIAN_POINT ( 'NONE',  ( 0.0000000000000000000, 7.500000000000000000, 0.0000000000000000000 ) ) ;
#25 = PRODUCT ( 'TECO-J6', 'TECO-J6', '', ( #201 ) ) ;
#26 = DIRECTION ( 'NONE',  ( -0.0000000000000000000, -1.000000000000000000, -0.0000000000000000000 ) ) ;
#27 = CARTESIAN_POINT ( 'NONE',  ( -0.9999999999999947800, 0.0000000000000000000, 1.373322751814965200E-016 ) ) ;
#28 = PRODUCT_RELATED_PRODUCT_CATEGORY ( 'part', '', ( #25 ) ) ;
#29 = CARTESIAN_POINT ( 'NONE',  ( 1.000000000000000700, -2.500000000000000400, -30.00000000000000000 ) ) ;
#30 = DIRECTION ( 'NONE',  ( 1.373322751814972400E-016, -0.0000000000000000000, 1.000000000000000000 ) ) ;
#31 = PRODUCT_DEFINITION_FORMATION_WITH_SPECIFIED_SOURCE ( 'ANY', '', #25, .NOT_KNOWN. ) ;
#32 = PRODUCT_RELATED_PRODUCT_CATEGORY ( 'part', '', ( #264 ) ) ;
#33 = PRODUCT_DEFINITION_FORMATION_WITH_SPECIFIED_SOURCE ( 'ANY', '', #264, .NOT_KNOWN. ) ;
#34 = PLANE ( 'NONE',  #63 ) ;
#35 = PRODUCT_DEFINITION ( 'UNKNOWN', '', #33, #213 ) ;
#36 = DIRECTION ( 'NONE',  ( -9.396418828207705900E-017, -0.0000000000000000000, -1.000000000000000000 ) ) ;
#37 = ORIENTED_EDGE ( 'NONE', *, *, #114, .T. ) ;
#38 = DIRECTION ( 'NONE',  ( 1.000000000000000000, 0.0000000000000000000, -9.396418828207705900E-017 ) ) ;
#39 = CARTESIAN_POINT ( 'NONE',  ( -0.9999999999999988900, -2.500000000000000400, -30.00000000000000000 ) ) ;
#40 = PRODUCT_DEFINITION ( 'UNKNOWN', '', #31, #268 ) ;
#41 = CARTESIAN_POINT ( 'NONE',  ( 1.000000000000000700, 7.500000000000000000, -30.00000000000000000 ) ) ;
#42 = AXIS2_PLACEMENT_3D ( 'NONE', #125, #188, #216 ) ;
#43 = DIRECTION ( 'NONE',  ( -9.396418828207705900E-017, 0.0000000000000000000, -1.000000000000000000 ) ) ;
#44 =( GEOMETRIC_REPRESENTATION_CONTEXT ( 3 ) GLOBAL_UNCERTAINTY_ASSIGNED_CONTEXT ( ( #107 ) ) GLOBAL_UNIT_ASSIGNED_CONTEXT ( ( #20, #180, #198 ) ) REPRESENTATION_CONTEXT ( 'NONE', 'WORKASPACE' ) );
#45 = CARTESIAN_POINT ( 'NONE',  ( -0.9999999999999988900, -2.500000000000000400, -30.00000000000000000 ) ) ;
#46 = PLANE ( 'NONE',  #65 ) ;
#47 = AXIS2_PLACEMENT_3D ( 'NONE', #239, #203, #202 ) ;
#48 = AXIS2_PLACEMENT_3D ( 'NONE', #165, #167, #235 ) ;
#49 = CARTESIAN_POINT ( 'NONE',  ( -0.9999999999999947800, -2.500000000000000400, 1.829633447167874100E-030 ) ) ;
#50 = EDGE_LOOP ( 'NONE', ( #185, #163, #262, #296 ) ) ;
#51 = UNCERTAINTY_MEASURE_WITH_UNIT (LENGTH_MEASURE( 1.000000000000000100E-005 ), #133, 'distance_accuracy_value', 'NONE');
#52 = DIRECTION ( 'NONE',  ( -0.0000000000000000000, 1.000000000000000000, -0.0000000000000000000 ) ) ;
#53 = PLANE ( 'NONE',  #152 ) ;
#54 = DIRECTION ( 'NONE',  ( -1.000000000000000000, 0.0000000000000000000, 1.373322751814972400E-016 ) ) ;
#55 =( GEOMETRIC_REPRESENTATION_CONTEXT ( 3 ) GLOBAL_UNCERTAINTY_ASSIGNED_CONTEXT ( ( #311 ) ) GLOBAL_UNIT_ASSIGNED_CONTEXT ( ( #155, #150, #164 ) ) REPRESENTATION_CONTEXT ( 'NONE', 'WORKASPACE' ) );
#56 = DIRECTION ( 'NONE',  ( -1.000000000000000000, 0.0000000000000000000, -0.0000000000000000000 ) ) ;
#57 = CARTESIAN_POINT ( 'NONE',  ( 0.0000000000000000000, 7.500000000000000000, 0.0000000000000000000 ) ) ;
#58 = MECHANICAL_DESIGN_GEOMETRIC_PRESENTATION_REPRESENTATION (  '', ( #79 ), #55 ) ;
#59 = PRESENTATION_LAYER_ASSIGNMENT (  '', '', ( #79 ) ) ;
#60 = CARTESIAN_POINT ( 'NONE',  ( -0.9999999999999947800, -2.500000000000000400, 1.829633447167874100E-030 ) ) ;
#61 = CARTESIAN_POINT ( 'NONE',  ( 0.0000000000000000000, 0.0000000000000000000, 0.0000000000000000000 ) ) ;
#62 = PLANE ( 'NONE',  #96 ) ;
#63 = AXIS2_PLACEMENT_3D ( 'NONE', #29, #38, #43 ) ;
#64 = DIRECTION ( 'NONE',  ( -1.000000000000000000, -0.0000000000000000000, -0.0000000000000000000 ) ) ;
#65 = AXIS2_PLACEMENT_3D ( 'NONE', #39, #95, #56 ) ;
#66 = CARTESIAN_POINT ( 'NONE',  ( -2.446952333500772900E-062, 0.0000000000000000000, 1.842911094369503900E-030 ) ) ;
#67 = DIRECTION ( 'NONE',  ( 1.000000000000000000, -0.0000000000000000000, 1.327764720162978800E-032 ) ) ;
#68 = PLANE ( 'NONE',  #101 ) ;
#69 = AXIS2_PLACEMENT_3D ( 'NONE', #57, #116, #106 ) ;
#70 = DIRECTION ( 'NONE',  ( 0.0000000000000000000, 1.000000000000000000, 0.0000000000000000000 ) ) ;
#71 = EDGE_CURVE ( 'NONE', #258, #265, #253, .T. ) ;
#72 = FILL_AREA_STYLE_COLOUR ( '', #200 ) ;
#73 = DIRECTION ( 'NONE',  ( 0.0000000000000000000, -0.0000000000000000000, 1.000000000000000000 ) ) ;
#74 = AXIS2_PLACEMENT_3D ( 'NONE', #17, #18, #19 ) ;
#75 = DIRECTION ( 'NONE',  ( 1.373322751814972400E-016, 0.0000000000000000000, 1.000000000000000000 ) ) ;
#76 = EDGE_CURVE ( 'NONE', #269, #263, #250, .T. ) ;
#77 = DIRECTION ( 'NONE',  ( -1.327764720162978800E-032, 0.0000000000000000000, 1.000000000000000000 ) ) ;
#78 = DIRECTION ( 'NONE',  ( 1.000000000000000000, 0.0000000000000000000, 1.327764720162978800E-032 ) ) ;
#79 = STYLED_ITEM ( 'NONE', ( #138 ), #244 ) ;
#80 = AXIS2_PLACEMENT_3D ( 'NONE', #212, #209, #159 ) ;
#81 = FILL_AREA_STYLE ('',( #72 ) ) ;
#82 = SURFACE_SIDE_STYLE ('',( #196 ) ) ;
#83 = SURFACE_STYLE_USAGE ( .BOTH. , #82 ) ;
#84 =( GEOMETRIC_REPRESENTATION_CONTEXT ( 3 ) GLOBAL_UNCERTAINTY_ASSIGNED_CONTEXT ( ( #51 ) ) GLOBAL_UNIT_ASSIGNED_CONTEXT ( ( #133, #134, #208 ) ) REPRESENTATION_CONTEXT ( 'NONE', 'WORKASPACE' ) );
#85 = CONTEXT_DEPENDENT_SHAPE_REPRESENTATION ( #237, #176 ) ;
#86 = ORIENTED_EDGE ( 'NONE', *, *, #142, .T. ) ;
#87 =( LENGTH_UNIT ( ) NAMED_UNIT ( * ) SI_UNIT ( .MILLI., .METRE. ) );
#88 = AXIS2_PLACEMENT_3D ( 'NONE', #24, #26, #16 ) ;
#89 = AXIS2_PLACEMENT_3D ( 'NONE', #15, #22, #23 ) ;
#90 =( NAMED_UNIT ( * ) PLANE_ANGLE_UNIT ( ) SI_UNIT ( $, .RADIAN. ) );
#91 =( NAMED_UNIT ( * ) SI_UNIT ( $, .STERADIAN. ) SOLID_ANGLE_UNIT ( ) );
#92 = ITEM_DEFINED_TRANSFORMATION ( 'NONE', 'NONE', #47,  #80 ) ;
#93 = SHAPE_DEFINITION_REPRESENTATION ( #94, #272 ) ;
#94 = PRODUCT_DEFINITION_SHAPE ( 'NONE', 'NONE',  #40 ) ;
#95 = DIRECTION ( 'NONE',  ( 0.0000000000000000000, 0.0000000000000000000, -1.000000000000000000 ) ) ;
#96 = AXIS2_PLACEMENT_3D ( 'NONE', #60, #77, #78 ) ;
#97 = CARTESIAN_POINT ( 'NONE',  ( 0.0000000000000000000, 7.500000000000000000, -40.00000000000000000 ) ) ;
#98 = CARTESIAN_POINT ( 'NONE',  ( -0.9999999999999947800, 7.500000000000000000, 1.829633447167874100E-030 ) ) ;
#99 = CARTESIAN_POINT ( 'NONE',  ( 1.000000000000000700, -2.500000000000000400, -30.00000000000000000 ) ) ;
#100 = SHAPE_DEFINITION_REPRESENTATION ( #190, #271 ) ;
#101 = AXIS2_PLACEMENT_3D ( 'NONE', #61, #70, #73 ) ;
#102 = DIRECTION ( 'NONE',  ( -0.0000000000000000000, -1.000000000000000000, -0.0000000000000000000 ) ) ;
#103 = DIRECTION ( 'NONE',  ( 1.000000000000000000, 0.0000000000000000000, 1.327764720162978800E-032 ) ) ;
#104 = STYLED_ITEM ( 'NONE', ( #195 ), #162 ) ;
#105 = AXIS2_PLACEMENT_3D ( 'NONE', #121, #181, #153 ) ;
#106 = DIRECTION ( 'NONE',  ( 0.0000000000000000000, 0.0000000000000000000, -1.000000000000000000 ) ) ;
#107 = UNCERTAINTY_MEASURE_WITH_UNIT (LENGTH_MEASURE( 1.000000000000000100E-005 ), #20, 'distance_accuracy_value', 'NONE');
#108 = EDGE_CURVE ( 'NONE', #260, #265, #254, .T. ) ;
#109 = CARTESIAN_POINT ( 'NONE',  ( -0.9999999999999988900, 7.500000000000000000, -30.00000000000000000 ) ) ;
#110 = CARTESIAN_POINT ( 'NONE',  ( 0.0000000000000000000, 0.0000000000000000000, -30.00000000000000000 ) ) ;
#111 = DIRECTION ( 'NONE',  ( -1.000000000000000000, 0.0000000000000000000, 0.0000000000000000000 ) ) ;
#112 = AXIS2_PLACEMENT_3D ( 'NONE', #11, #12, #13 ) ;
#113 = DIRECTION ( 'NONE',  ( -0.0000000000000000000, 1.000000000000000000, -0.0000000000000000000 ) ) ;
#114 = EDGE_CURVE ( 'NONE', #263, #266, #251, .T. ) ;
#115 = CARTESIAN_POINT ( 'NONE',  ( 4.898587196589413000E-015, 0.0000000000000000000, 40.00000000000000000 ) ) ;
#116 = DIRECTION ( 'NONE',  ( -0.0000000000000000000, -1.000000000000000000, -0.0000000000000000000 ) ) ;
#117 = EDGE_CURVE ( 'NONE', #259, #267, #246, .T. ) ;
#118 =( GEOMETRIC_REPRESENTATION_CONTEXT ( 3 ) GLOBAL_UNCERTAINTY_ASSIGNED_CONTEXT ( ( #220 ) ) GLOBAL_UNIT_ASSIGNED_CONTEXT ( ( #87, #90, #91 ) ) REPRESENTATION_CONTEXT ( 'NONE', 'WORKASPACE' ) );
#119 = CARTESIAN_POINT ( 'NONE',  ( -0.9999999999999988900, 0.0000000000000000000, -30.00000000000000000 ) ) ;
#120 = DIRECTION ( 'NONE',  ( 1.373322751814972400E-016, 0.0000000000000000000, 1.000000000000000000 ) ) ;
#121 = CARTESIAN_POINT ( 'NONE',  ( 0.0000000000000000000, 0.0000000000000000000, 0.0000000000000000000 ) ) ;
#122 = CARTESIAN_POINT ( 'NONE',  ( 0.0000000000000000000, 7.500000000000000000, -40.00000000000000000 ) ) ;
#123 = CARTESIAN_POINT ( 'NONE',  ( 1.000000000000003600, 0.0000000000000000000, 1.856188741571133500E-030 ) ) ;
#124 = CARTESIAN_POINT ( 'NONE',  ( -0.9999999999999947800, 7.500000000000000000, 1.829633447167874100E-030 ) ) ;
#125 = CARTESIAN_POINT ( 'NONE',  ( 0.0000000000000000000, 0.0000000000000000000, 0.0000000000000000000 ) ) ;
#126 = CARTESIAN_POINT ( 'NONE',  ( -0.9999999999999988900, 7.500000000000000000, -30.00000000000000000 ) ) ;
#127 = CARTESIAN_POINT ( 'NONE',  ( 0.0000000000000000000, 0.0000000000000000000, -40.00000000000000000 ) ) ;
#128 = CARTESIAN_POINT ( 'NONE',  ( 1.000000000000000700, 0.0000000000000000000, -30.00000000000000000 ) ) ;
#129 = CARTESIAN_POINT ( 'NONE',  ( 4.898587196589413000E-015, 7.500000000000000000, 40.00000000000000000 ) ) ;
#130 = CARTESIAN_POINT ( 'NONE',  ( 1.000000000000003600, 7.500000000000000000, 1.856188741571133500E-030 ) ) ;
#131 = EDGE_CURVE ( 'NONE', #269, #257, #248, .T. ) ;
#132 = MECHANICAL_DESIGN_GEOMETRIC_PRESENTATION_REPRESENTATION (  '', ( #104 ), #118 ) ;
#133 =( LENGTH_UNIT ( ) NAMED_UNIT ( * ) SI_UNIT ( .MILLI., .METRE. ) );
#134 =( NAMED_UNIT ( * ) PLANE_ANGLE_UNIT ( ) SI_UNIT ( $, .RADIAN. ) );
#135 = EDGE_CURVE ( 'NONE', #257, #269, #245, .T. ) ;
#136 = EDGE_CURVE ( 'NONE', #259, #256, #241, .T. ) ;
#137 = ADVANCED_FACE ( 'NONE', ( #242, #238 ), #21, .T. ) ;
#138 = PRESENTATION_STYLE_ASSIGNMENT (( #156 ) ) ;
#139 = SURFACE_STYLE_FILL_AREA ( #214 ) ;
#140 = EDGE_CURVE ( 'NONE', #260, #255, #229, .T. ) ;
#141 = ADVANCED_FACE ( 'NONE', ( #227 ), #225, .T. ) ;
#142 = EDGE_CURVE ( 'NONE', #256, #258, #228, .T. ) ;
#143 = ADVANCED_FACE ( 'NONE', ( #223 ), #34, .F. ) ;
#144 = COLOUR_RGB ( '',0.7921568627450980000, 0.8196078431372548800, 0.9333333333333333500 ) ;
#145 = EDGE_CURVE ( 'NONE', #255, #261, #222, .T. ) ;
#146 = ADVANCED_FACE ( 'NONE', ( #224 ), #53, .F. ) ;
#147 = ADVANCED_FACE ( 'NONE', ( #221 ), #46, .F. ) ;
#148 = DIRECTION ( 'NONE',  ( -9.396418828207705900E-017, 0.0000000000000000000, -1.000000000000000000 ) ) ;
#149 = ADVANCED_FACE ( 'NONE', ( #217 ), #210, .T. ) ;
#150 =( NAMED_UNIT ( * ) PLANE_ANGLE_UNIT ( ) SI_UNIT ( $, .RADIAN. ) );
#151 = EDGE_CURVE ( 'NONE', #255, #259, #215, .T. ) ;
#152 = AXIS2_PLACEMENT_3D ( 'NONE', #45, #54, #120 ) ;
#153 = DIRECTION ( 'NONE',  ( 0.0000000000000000000, 0.0000000000000000000, 1.000000000000000000 ) ) ;
#154 = ADVANCED_FACE ( 'NONE', ( #205, #231 ), #68, .F. ) ;
#155 =( LENGTH_UNIT ( ) NAMED_UNIT ( * ) SI_UNIT ( .MILLI., .METRE. ) );
#156 = SURFACE_STYLE_USAGE ( .BOTH. , #158 ) ;
#157 = ADVANCED_FACE ( 'NONE', ( #206 ), #62, .F. ) ;
#158 = SURFACE_SIDE_STYLE ('',( #139 ) ) ;
#159 = DIRECTION ( 'NONE',  ( 1.000000000000000000, 0.0000000000000000000, 0.0000000000000000000 ) ) ;
#160 = CARTESIAN_POINT ( 'NONE',  ( -0.9999999999999947800, 0.0000000000000000000, 1.829633447167874100E-030 ) ) ;
#161 = CARTESIAN_POINT ( 'NONE',  ( 1.000000000000000700, 7.500000000000000000, -30.00000000000000000 ) ) ;
#162 = MANIFOLD_SOLID_BREP ( '°£®Æ-¦ùªø2', #278 ) ;
#163 = ORIENTED_EDGE ( 'NONE', *, *, #71, .F. ) ;
#164 =( NAMED_UNIT ( * ) SI_UNIT ( $, .STERADIAN. ) SOLID_ANGLE_UNIT ( ) );
#165 = CARTESIAN_POINT ( 'NONE',  ( 0.0000000000000000000, 0.0000000000000000000, 0.0000000000000000000 ) ) ;
#166 = SHAPE_REPRESENTATION_RELATIONSHIP ( 'NONE' , 'NONE' ,  #272, #244 ) ;
#167 = DIRECTION ( 'NONE',  ( 0.0000000000000000000, 0.0000000000000000000, 1.000000000000000000 ) ) ;
#168 = APPLICATION_PROTOCOL_DEFINITION ( 'draft international standard', 'automotive_design', 1998, #186 ) ;
#169 = APPLICATION_PROTOCOL_DEFINITION ( 'draft international standard', 'automotive_design', 1998, #230 ) ;
#170 = VECTOR ( 'NONE', #75, 1000.000000000000000 ) ;
#171 = EDGE_CURVE ( 'NONE', #257, #266, #204, .T. ) ;
#172 = LINE ( 'NONE', #109, #170 ) ;
#173 = EDGE_CURVE ( 'NONE', #261, #256, #197, .T. ) ;
#174 = VECTOR ( 'NONE', #113, 1000.000000000000000 ) ;
#175 = CIRCLE ( 'NONE', #105, 40.00000000000000000 ) ;
#176 = PRODUCT_DEFINITION_SHAPE ( 'NONE', 'NONE',  #313 ) ;
#177 = VECTOR ( 'NONE', #111, 1000.000000000000000 ) ;
#178 = VECTOR ( 'NONE', #103, 1000.000000000000000 ) ;
#179 = LINE ( 'NONE', #110, #177 ) ;
#180 =( NAMED_UNIT ( * ) PLANE_ANGLE_UNIT ( ) SI_UNIT ( $, .RADIAN. ) );
#181 = DIRECTION ( 'NONE',  ( 0.0000000000000000000, 1.000000000000000000, 0.0000000000000000000 ) ) ;
#182 = PRESENTATION_LAYER_ASSIGNMENT (  '', '', ( #104 ) ) ;
#183 = VECTOR ( 'NONE', #102, 1000.000000000000000 ) ;
#184 = EDGE_CURVE ( 'NONE', #267, #260, #179, .T. ) ;
#185 = ORIENTED_EDGE ( 'NONE', *, *, #192, .F. ) ;
#186 = APPLICATION_CONTEXT ( 'automotive_design' ) ;
#187 = AXIS2_PLACEMENT_3D ( 'NONE', #5, #4, #7 ) ;
#188 = DIRECTION ( 'NONE',  ( 0.0000000000000000000, 0.0000000000000000000, 1.000000000000000000 ) ) ;
#189 = EDGE_CURVE ( 'NONE', #267, #258, #211, .T. ) ;
#190 = PRODUCT_DEFINITION_SHAPE ( 'NONE', 'NONE',  #35 ) ;
#191 = EDGE_CURVE ( 'NONE', #266, #263, #175, .T. ) ;
#192 = EDGE_CURVE ( 'NONE', #265, #261, #172, .T. ) ;
#193 = APPLICATION_CONTEXT ( 'automotive_design' ) ;
#194 = APPLICATION_PROTOCOL_DEFINITION ( 'draft international standard', 'automotive_design', 1998, #193 ) ;
#195 = PRESENTATION_STYLE_ASSIGNMENT (( #83 ) ) ;
#196 = SURFACE_STYLE_FILL_AREA ( #81 ) ;
#197 = LINE ( 'NONE', #98, #178 ) ;
#198 =( NAMED_UNIT ( * ) SI_UNIT ( $, .STERADIAN. ) SOLID_ANGLE_UNIT ( ) );
#199 = APPLICATION_CONTEXT ( 'automotive_design' ) ;
#200 = COLOUR_RGB ( '',0.7921568627450980000, 0.8196078431372548800, 0.9333333333333333500 ) ;
#201 = PRODUCT_CONTEXT ( 'NONE', #186, 'mechanical' ) ;
#202 = DIRECTION ( 'NONE',  ( -1.000000000000000000, -1.772388970569061700E-016, -2.391272169595769400E-016 ) ) ;
#203 = DIRECTION ( 'NONE',  ( 2.392356367059737500E-016, 6.886930989324218600E-012, -1.000000000000000000 ) ) ;
#204 = LINE ( 'NONE', #97, #183 ) ;
#205 = FACE_BOUND ( 'NONE', #275, .T. ) ;
#206 = FACE_OUTER_BOUND ( 'NONE', #302, .T. ) ;
#207 = ORIENTED_EDGE ( 'NONE', *, *, #131, .F. ) ;
#208 =( NAMED_UNIT ( * ) SI_UNIT ( $, .STERADIAN. ) SOLID_ANGLE_UNIT ( ) );
#209 = DIRECTION ( 'NONE',  ( 0.0000000000000000000, 0.0000000000000000000, 1.000000000000000000 ) ) ;
#210 = CYLINDRICAL_SURFACE ( 'NONE', #69, 40.00000000000000000 ) ;
#211 = LINE ( 'NONE', #99, #174 ) ;
#212 = CARTESIAN_POINT ( 'NONE',  ( 0.0000000000000000000, 0.0000000000000000000, 0.0000000000000000000 ) ) ;
#213 = PRODUCT_DEFINITION_CONTEXT ( 'detailed design', #230, 'design' ) ;
#214 = FILL_AREA_STYLE ('',( #219 ) ) ;
#215 = LINE ( 'NONE', #66, #218 ) ;
#216 = DIRECTION ( 'NONE',  ( 1.000000000000000000, 0.0000000000000000000, 0.0000000000000000000 ) ) ;
#217 = FACE_OUTER_BOUND ( 'NONE', #273, .T. ) ;
#218 = VECTOR ( 'NONE', #67, 1000.000000000000000 ) ;
#219 = FILL_AREA_STYLE_COLOUR ( '', #144 ) ;
#220 = UNCERTAINTY_MEASURE_WITH_UNIT (LENGTH_MEASURE( 1.000000000000000100E-005 ), #87, 'distance_accuracy_value', 'NONE');
#221 = FACE_OUTER_BOUND ( 'NONE', #282, .T. ) ;
#222 = LINE ( 'NONE', #49, #226 ) ;
#223 = FACE_OUTER_BOUND ( 'NONE', #291, .T. ) ;
#224 = FACE_OUTER_BOUND ( 'NONE', #270, .T. ) ;
#225 = CYLINDRICAL_SURFACE ( 'NONE', #88, 40.00000000000000000 ) ;
#226 = VECTOR ( 'NONE', #52, 1000.000000000000000 ) ;
#227 = FACE_OUTER_BOUND ( 'NONE', #279, .T. ) ;
#228 = LINE ( 'NONE', #41, #233 ) ;
#229 = LINE ( 'NONE', #27, #232 ) ;
#230 = APPLICATION_CONTEXT ( 'automotive_design' ) ;
#231 = FACE_OUTER_BOUND ( 'NONE', #312, .T. ) ;
#232 = VECTOR ( 'NONE', #30, 1000.000000000000000 ) ;
#233 = VECTOR ( 'NONE', #36, 1000.000000000000000 ) ;
#234 = PRODUCT_CONTEXT ( 'NONE', #193, 'mechanical' ) ;
#235 = DIRECTION ( 'NONE',  ( 1.000000000000000000, 0.0000000000000000000, 0.0000000000000000000 ) ) ;
#236 = VECTOR ( 'NONE', #10, 1000.000000000000000 ) ;
#237 =( REPRESENTATION_RELATIONSHIP ('NONE','NONE', #271, #272 ) REPRESENTATION_RELATIONSHIP_WITH_TRANSFORMATION ( #92 )SHAPE_REPRESENTATION_RELATIONSHIP( ) );
#238 = FACE_OUTER_BOUND ( 'NONE', #274, .T. ) ;
#239 = CARTESIAN_POINT ( 'NONE',  ( -780.4999999997329500, -159.7499999971068700, 40.09999999880714200 ) ) ;
#240 = APPLICATION_PROTOCOL_DEFINITION ( 'draft international standard', 'automotive_design', 1998, #199 ) ;
#241 = LINE ( 'NONE', #8, #236 ) ;
#242 = FACE_BOUND ( 'NONE', #50, .T. ) ;
#243 = VECTOR ( 'NONE', #148, 1000.000000000000000 ) ;
#244 = ADVANCED_BREP_SHAPE_REPRESENTATION ( '', ( #162, #80 ), #84 ) ;
#245 = CIRCLE ( 'NONE', #74, 40.00000000000000000 ) ;
#246 = LINE ( 'NONE', #2, #243 ) ;
#247 = VECTOR ( 'NONE', #1, 1000.000000000000000 ) ;
#248 = CIRCLE ( 'NONE', #112, 40.00000000000000000 ) ;
#249 = VECTOR ( 'NONE', #9, 1000.000000000000000 ) ;
#250 = LINE ( 'NONE', #6, #249 ) ;
#251 = CIRCLE ( 'NONE', #187, 40.00000000000000000 ) ;
#252 = VECTOR ( 'NONE', #64, 1000.000000000000000 ) ;
#253 = LINE ( 'NONE', #14, #252 ) ;
#254 = LINE ( 'NONE', #3, #247 ) ;
#255 = VERTEX_POINT ( 'NONE', #160 ) ;
#256 = VERTEX_POINT ( 'NONE', #130 ) ;
#257 = VERTEX_POINT ( 'NONE', #122 ) ;
#258 = VERTEX_POINT ( 'NONE', #161 ) ;
#259 = VERTEX_POINT ( 'NONE', #123 ) ;
#260 = VERTEX_POINT ( 'NONE', #119 ) ;
#261 = VERTEX_POINT ( 'NONE', #124 ) ;
#262 = ORIENTED_EDGE ( 'NONE', *, *, #142, .F. ) ;
#263 = VERTEX_POINT ( 'NONE', #115 ) ;
#264 = PRODUCT ( 'A6_Link', 'A6_Link', '', ( #234 ) ) ;
#265 = VERTEX_POINT ( 'NONE', #126 ) ;
#266 = VERTEX_POINT ( 'NONE', #127 ) ;
#267 = VERTEX_POINT ( 'NONE', #128 ) ;
#268 = PRODUCT_DEFINITION_CONTEXT ( 'detailed design', #199, 'design' ) ;
#269 = VERTEX_POINT ( 'NONE', #129 ) ;
#270 = EDGE_LOOP ( 'NONE', ( #289, #303, #297, #294 ) ) ;
#271 = SHAPE_REPRESENTATION ( 'A6_Link', ( #42, #47 ), #44 ) ;
#272 = SHAPE_REPRESENTATION ( 'TECO-J6', ( #80 ), #84 ) ;
#273 = EDGE_LOOP ( 'NONE', ( #293, #299, #305, #310 ) ) ;
#274 = EDGE_LOOP ( 'NONE', ( #309, #304 ) ) ;
#275 = EDGE_LOOP ( 'NONE', ( #284, #295, #283, #281 ) ) ;
#276 = ORIENTED_EDGE ( 'NONE', *, *, #191, .F. ) ;
#277 = ORIENTED_EDGE ( 'NONE', *, *, #189, .F. ) ;
#278 = CLOSED_SHELL ( 'NONE', ( #141, #149, #137, #154, #146, #147, #143, #157 ) ) ;
#279 = EDGE_LOOP ( 'NONE', ( #207, #286, #37, #290 ) ) ;
#280 = ORIENTED_EDGE ( 'NONE', *, *, #145, .T. ) ;
#281 = ORIENTED_EDGE ( 'NONE', *, *, #117, .T. ) ;
#282 = EDGE_LOOP ( 'NONE', ( #288, #298, #301, #287 ) ) ;
#283 = ORIENTED_EDGE ( 'NONE', *, *, #151, .T. ) ;
#284 = ORIENTED_EDGE ( 'NONE', *, *, #184, .T. ) ;
#285 = ORIENTED_EDGE ( 'NONE', *, *, #117, .F. ) ;
#286 = ORIENTED_EDGE ( 'NONE', *, *, #76, .T. ) ;
#287 = ORIENTED_EDGE ( 'NONE', *, *, #184, .F. ) ;
#288 = ORIENTED_EDGE ( 'NONE', *, *, #189, .T. ) ;
#289 = ORIENTED_EDGE ( 'NONE', *, *, #108, .T. ) ;
#290 = ORIENTED_EDGE ( 'NONE', *, *, #171, .F. ) ;
#291 = EDGE_LOOP ( 'NONE', ( #307, #86, #277, #285 ) ) ;
#292 = ORIENTED_EDGE ( 'NONE', *, *, #136, .F. ) ;
#293 = ORIENTED_EDGE ( 'NONE', *, *, #76, .F. ) ;
#294 = ORIENTED_EDGE ( 'NONE', *, *, #140, .F. ) ;
#295 = ORIENTED_EDGE ( 'NONE', *, *, #140, .T. ) ;
#296 = ORIENTED_EDGE ( 'NONE', *, *, #173, .F. ) ;
#297 = ORIENTED_EDGE ( 'NONE', *, *, #145, .F. ) ;
#298 = ORIENTED_EDGE ( 'NONE', *, *, #71, .T. ) ;
#299 = ORIENTED_EDGE ( 'NONE', *, *, #135, .F. ) ;
#300 = ORIENTED_EDGE ( 'NONE', *, *, #114, .F. ) ;
#301 = ORIENTED_EDGE ( 'NONE', *, *, #108, .F. ) ;
#302 = EDGE_LOOP ( 'NONE', ( #280, #308, #292, #306 ) ) ;
#303 = ORIENTED_EDGE ( 'NONE', *, *, #192, .T. ) ;
#304 = ORIENTED_EDGE ( 'NONE', *, *, #131, .T. ) ;
#305 = ORIENTED_EDGE ( 'NONE', *, *, #171, .T. ) ;
#306 = ORIENTED_EDGE ( 'NONE', *, *, #151, .F. ) ;
#307 = ORIENTED_EDGE ( 'NONE', *, *, #136, .T. ) ;
#308 = ORIENTED_EDGE ( 'NONE', *, *, #173, .T. ) ;
#309 = ORIENTED_EDGE ( 'NONE', *, *, #135, .T. ) ;
#310 = ORIENTED_EDGE ( 'NONE', *, *, #191, .T. ) ;
#311 = UNCERTAINTY_MEASURE_WITH_UNIT (LENGTH_MEASURE( 1.000000000000000100E-005 ), #155, 'distance_accuracy_value', 'NONE');
#312 = EDGE_LOOP ( 'NONE', ( #276, #300 ) ) ;
#313 = NEXT_ASSEMBLY_USAGE_OCCURRENCE ( 'NAUO1', ' ', ' ', #35, #40, $ ) ;
ENDSEC;
END-ISO-10303-21;
